PathFileType	4	(X/Y/Z)	D:\Share\Shared_Data\Ergonomics\Sit To Stand Pertubation\S1\Perturbed_NoHarness.trc
DataRate	CameraRate	NumFrames	NumMarkers	Units	OrigDataRate	OrigDataStartFrame	OrigNumFrames	
100	100	11	18	m	100	8516	221
Frame#	Time	L_ASIS			R_ASIS			R_Pelvis			V_Sacral			L_Pelvis			Clavical			R_Acromium			L_Acromium			Sternum			Torso			R_Thigh_Med			R_Thigh_Lat			R_Thigh			R_Shank_Med			R_Shank_Lat			R_Shank			R_Heel			R_Toe			
		X1	Y1	Z1	X2	Y2	Z2	X3	Y3	Z3	X4	Y4	Z4	X5	Y5	Z5	X6	Y6	Z6	X7	Y7	Z7	X8	Y8	Z8	X9	Y9	Z9	X10	Y10	Z10	X11	Y11	Z11	X12	Y12	Z12	X13	Y13	Z13	X14	Y14	Z14	X15	Y15	Z15	X16	Y16	Z16	X17	Y17	Z17	X18	Y18	Z18	

8516	85.15	0.08586557	0.61802374	-0.0949151	-0.02320849	0.64522742	0.1331651	0.058314522	0.61471637	0.10920194	-0.13649741	0.6076192	0.0032350016	-0.008455205	0.64154193	-0.1332419	0.28343942	0.85408417	0.01017024	0.27554745	0.95624622	0.1493291	0.22125566	0.95110406	-0.1833924	0.27026791	0.87931708	0.10748986	0.28407562	0.86764807	-0.043970158	0.30871628	0.41737015	0.047130291	0.30473404	0.43580209	0.16671504	0.1811315	0.55650024	0.11799339	0.33699814	0.096632156	0.10274625	0.30893155	0.097674385	0.180186	0.30612076	0.31076038	0.18901349	0.26973956	0.040893623	0.13366595	0.47450797	0.053321915	0.14121791
8517	85.16	0.090866119	0.61679535	-0.095652664	-0.018502859	0.64619525	0.13271504	0.062647873	0.6139715	0.1093577	-0.13228734	0.61024683	0.0028146205	-0.0028762078	0.64217426	-0.13279385	0.29340118	0.84929785	0.01044341	0.28647342	0.95200562	0.14893756	0.2323466	0.9482041	-0.18305356	0.27986087	0.87485675	0.10747734	0.29359329	0.8630484	-0.043390282	0.31062009	0.41745737	0.047577797	0.30651764	0.4356889	0.16713947	0.18357988	0.5570257	0.11831796	0.33725082	0.096605186	0.10285522	0.30905759	0.097642784	0.1803584	0.30745288	0.31073413	0.18932593	0.26971371	0.040783249	0.13374368	0.47450919	0.053727409	0.14152335
8518	85.17	0.095949677	0.61566895	-0.096552757	-0.013685408	0.64710449	0.1322328	0.067108665	0.61323279	0.10948027	-0.12789275	0.61272681	0.0023667166	0.0028346808	0.64275751	-0.13237433	0.30313684	0.84467017	0.010698021	0.29712323	0.94790985	0.14852872	0.24311765	0.94534906	-0.18269873	0.28927118	0.87056573	0.10744341	0.30287753	0.85860547	-0.042837196	0.31282297	0.4175119	0.047995338	0.30856509	0.43555597	0.16755232	0.18629741	0.55752039	0.11861219	0.33755719	0.09656295	0.10294157	0.30924414	0.097613945	0.18051062	0.30895786	0.31069519	0.18961069	0.26970364	0.040649967	0.13377762	0.47453873	0.054089508	0.14181488
8519	85.18	0.10108476	0.61464459	-0.097589348	-0.0087882843	0.64793921	0.13173396	0.071672943	0.61249811	0.10956839	-0.1233428	0.61501416	0.0019020771	0.0086308823	0.64327448	-0.13199159	0.31258664	0.84024445	0.010934803	0.30744925	0.9440014	0.14811031	0.25351241	0.94256171	-0.18233627	0.29845523	0.86648389	0.10739147	0.31188599	0.85436084	-0.04231572	0.31532532	0.41752545	0.048370705	0.31088654	0.43539886	0.16794162	0.18928627	0.55797034	0.11887424	0.33791522	0.096503296	0.10300179	0.30949155	0.097588531	0.18063823	0.31063916	0.31064148	0.18985825	0.26970776	0.040481968	0.1337562	0.47459814	0.054392281	0.14208659
8520	85.19	0.10624488	0.61371887	-0.098723236	-0.0038407917	0.64868579	0.13123462	0.076318565	0.61176801	0.10962244	-0.1186654	0.6170733	0.0014330136	0.014468223	0.64371039	-0.13165327	0.32169522	0.83606421	0.011154334	0.31740659	0.94032306	0.14769089	0.26348004	0.93986719	-0.18197665	0.30737137	0.86265131	0.10732527	0.32057986	0.85035571	-0.04183065	0.31812036	0.41748981	0.048692287	0.31348807	0.43521307	0.16829523	0.1925457	0.55836359	0.11910235	0.33832214	0.096424408	0.10303259	0.30979929	0.097567245	0.18073701	0.31249896	0.31057101	0.19005937	0.2697243	0.040267181	0.13366805	0.47468774	0.05462236	0.14233345
8521	85.2	0.11140954	0.61288654	-0.099903923	0.0011318021	0.64933545	0.13075056	0.081025917	0.61104724	0.10964462	-0.11388607	0.61888062	0.00097281986	0.020306778	0.64405444	-0.13136598	0.33041406	0.83217303	0.011357087	0.32695401	0.9369173	0.14727991	0.27297638	0.93729315	-0.18163145	0.31598071	0.85910736	0.10724894	0.32892526	0.84663013	-0.041386429	0.32119409	0.41739731	0.048949409	0.31637122	0.43499399	0.16860118	0.19607162	0.55869104	0.11929493	0.33877469	0.09632486	0.10303084	0.31016635	0.097550735	0.18080342	0.31453717	0.31048218	0.19020563	0.26975153	0.039994415	0.1335031	0.47480658	0.05476965	0.14255136
8522	85.21	0.11656429	0.61214258	-0.10107292	0.006109086	0.64988489	0.13029698	0.085778465	0.61034521	0.10963877	-0.10902729	0.62042627	0.00053517014	0.026112242	0.6443017	-0.1311348	0.33870352	0.82861334	0.011543466	0.33605502	0.93382544	0.14688728	0.28196536	0.93487006	-0.18131236	0.32424857	0.85589087	0.10716676	0.33689435	0.84322284	-0.040986847	0.32452615	0.41724127	0.049132549	0.3195325	0.43473718	0.16884805	0.19985677	0.55894659	0.11945043	0.33926913	0.096203712	0.10299383	0.31059134	0.097539619	0.18083444	0.31675174	0.31037344	0.19028949	0.26978784	0.039654659	0.13325345	0.47495215	0.054827984	0.14273752
8523	85.22	0.12170045	0.61148322	-0.10216807	0.011075874	0.65033777	0.1298877	0.090562813	0.60967639	0.10961034	-0.10410802	0.62171484	0.00013349389	0.031856768	0.64445422	-0.13096271	0.34653439	0.82542596	0.011713839	0.34467923	0.93108685	0.14652347	0.29042001	0.93263055	-0.18103027	0.33214554	0.85303882	0.10708306	0.3444664	0.8401712	-0.04063485	0.32809088	0.41701602	0.049233456	0.3229632	0.43443881	0.16902521	0.20389069	0.55912842	0.11956741	0.33980124	0.096060493	0.1029193	0.31107211	0.097534477	0.18082791	0.31913806	0.31024374	0.1903046	0.26983224	0.039242378	0.13291467	0.4751207	0.054795513	0.14289029
8524	85.23	0.12681406	0.61090833	-0.10312852	0.016022133	0.65070538	0.12953513	0.095368591	0.60906012	0.10956583	-0.099143959	0.62276477	-0.00021964686	0.037519203	0.64452203	-0.13085039	0.3538891	0.82264984	0.01186855	0.35280313	0.92873804	0.14619887	0.29832269	0.93060968	-0.18079456	0.33964856	0.85058624	0.10700195	0.35162823	0.83751038	-0.040332367	0.33185858	0.41671771	0.049245178	0.32664914	0.43409586	0.16912318	0.20815964	0.55923804	0.11964438	0.34036639	0.095895256	0.10280554	0.31160593	0.097535843	0.18078264	0.32168857	0.31009229	0.19024596	0.26988397	0.038756588	0.13248665	0.47530707	0.054674801	0.14300925
8525	85.24	0.13190457	0.61042206	-0.1038996	0.020942497	0.65100665	0.12924968	0.1001881	0.60852008	0.10951254	-0.094147743	0.6236076	-0.00051315677	0.043084808	0.64452289	-0.13079573	0.36076181	0.82032086	0.012007925	0.36041071	0.92681244	0.14592377	0.30566528	0.92884399	-0.18061259	0.34674152	0.84856543	0.10692723	0.35837466	0.83527283	-0.040080299	0.33579718	0.41634418	0.04916206	0.33057086	0.43370627	0.16913374	0.21264694	0.55928088	0.11967971	0.34095932	0.095708626	0.10265162	0.31218948	0.097544235	0.18069826	0.3243927	0.30991852	0.19010994	0.26994266	0.03820163	0.13197426	0.47550531	0.054472515	0.14309499
8526	85.25	0.13697337	0.61003412	-0.10443703	0.025835463	0.65126727	0.12903986	0.10501562	0.60808362	0.1094579	-0.089129684	0.62428595	-0.00073796809	0.048544537	0.64448303	-0.13079382	0.36715823	0.81847174	0.012132241	0.36749399	0.92533929	0.14570758	0.31244879	0.92737048	-0.18048935	0.35341553	0.84700562	0.10686219	0.36470798	0.83348895	-0.039878506	0.33987363	0.41589536	0.048979618	0.33470407	0.43326944	0.16904996	0.21733311	0.55926587	0.11967162	0.34157422	0.095501732	0.10245737	0.3128186	0.097560127	0.18057541	0.32723682	0.30972238	0.18989426	0.27000848	0.037587482	0.13138773	0.47570889	0.054198784	0.14314906
